<?xml version="1.0" encoding="UTF-8"?>
<svg width="500px" height="612px" viewBox="0 0 500 612" version="1.1" xmlns="http://www.w3.org/2000/svg" xmlns:xlink="http://www.w3.org/1999/xlink">
    <!-- Generator: Sketch 61.2 (89653) - https://sketch.com -->
    <title>Mask</title>
    <desc>Created with Sketch.</desc>
    <defs>
        <path d="M57.7812068,0 L70.4261461,34.433259 C101.315326,118.543134 154.895781,139.317166 211.614965,161.311649 C218.69061,164.043734 225.802263,166.811768 232.877908,169.693638 C266.479718,121.785688 303.670363,95.0813536 340.770987,92.4930625 C370.189826,90.4487918 397.562188,103.351902 422.227922,130.875263 L422.227922,130.875263 L423.398194,132.187383 C433.756602,143.720856 445.339294,156.788131 453.135106,176.1404 L453.135106,176.1404 L500,204.036427 C500,204.036427 445.519336,193.090112 432.154229,198.182815 C385.679426,220.656611 372.57238,268.59392 357.652912,323.247604 C336.359962,401.219874 312.234354,489.605222 185.862979,529.627872 C171.171564,534.27721 156.498153,537.428694 142.514903,539.897157 C135.859356,580.890416 126.857263,605.622975 109.069129,610.356193 C107.130678,610.871455 105.210232,611.111111 103.319792,611.111111 C87.2600591,611.111111 72.7846943,593.891785 62.9184009,580.237352 C59.7316602,575.833662 50.0394072,562.424876 55.3146334,549.860879 C61.7121205,534.624712 84.3553839,531.167666 115.70067,526.368543 C119.373524,525.799358 123.124396,525.236165 126.953286,524.61905 C129.821953,504.535828 132.096481,482.85889 134.11295,463.740285 C138.325929,423.705653 142.676941,382.460755 150.604784,352.467733 L150.604784,352.467733 L150.46075,352.407819 C70.8822521,316.357477 -19.3127136,275.502021 3.63061955,86.0666712 L3.63061955,86.0666712 L7.56753468,53.5075266 L20.5065423,83.6551268 C28.674441,102.710821 38.5287316,118.760623 50.2254505,132.331177 C48.1609706,104.704764 48.9231477,73.0641031 53.3701814,36.4134216 L53.3701814,36.4134216 L57.7812068,0 Z M23.7307806,118.773946 C14.6715816,269.14112 90.1248573,303.180497 163.229229,336.168281 C177.340674,342.549544 191.560252,348.972632 204.980843,356.321839 C195.585228,348.261611 185.474729,340.494156 175.045837,332.499652 C127.010455,295.634116 74.2952887,255.093976 58.9403068,161.053996 C45.3455008,149.21759 33.6730713,135.248121 23.7307806,118.773946 Z" id="path-1"></path>
    </defs>
    <g id="Page-1" stroke="none" stroke-width="1" fill="none" fill-rule="evenodd">
        <g id="Desktop-Copy" transform="translate(-990.000000, -187.000000)">
            <g id="pattern" transform="translate(990.000000, 187.000000)">
                <mask id="mask-2" fill="white">
                    <use xlink:href="#path-1"></use>
                </mask>
                <use id="Mask" fill="#FFFFFF" xlink:href="#path-1"></use>
            </g>
        </g>
    </g>
</svg>